<?xml version="1.0" encoding="utf-8"?>
<!-- Generator: Adobe Illustrator 26.0.3, SVG Export Plug-In . SVG Version: 6.00 Build 0)  -->
<svg version="1.0" id="katman_1" xmlns="http://www.w3.org/2000/svg" xmlns:xlink="http://www.w3.org/1999/xlink" x="0px" y="0px"
	 viewBox="0 0 600 450" style="enable-background:new 0 0 600 450;" xml:space="preserve">
<style type="text/css">
	.st0{fill-rule:evenodd;clip-rule:evenodd;fill:#010202;}
</style>
<path class="st0" d="M117.1,236.9c0,10.4-5.9,13.7-12.7,13.7c-4.8,0-7.5-3.3-7.5-6.9c0-4.4,3.1-6.5,6.8-7.2l13.4-2.1L117.1,236.9
	L117.1,236.9z M129.1,224c0-10.6-6-19.8-21.8-19.8c-12.6,0-20.6,8.2-21.6,17.3l11.1,2.6c0.5-5.3,4.1-9.6,10.5-9.6
	c6.7,0,9.7,3.6,9.7,8.1c0,1.8-0.8,3.4-3.8,3.8l-13.2,2.1c-8.7,1.3-15.5,6.5-15.5,16c0,8.4,6.6,16,17.4,16c8.3,0,13.4-4.4,15.8-8.4
	c0,4.3,0.4,6.4,0.5,6.8h11.4c-0.1-0.5-0.6-3.7-0.6-8.5L129.1,224L129.1,224z M286.6,216.2c-1.8-2.2-2.6-4.2-2.6-6.2
	c0-2.1,0.7-3.9,2.1-5.1c1.2-1.1,2.9-1.8,4.6-1.8c5.1,0,7,4,7.7,7.3l0.1,0.4l8.6-7.2l0.1-0.2c-2.7-7.2-8.6-11.2-16.4-11.2
	c-8.3,0.1-16.9,5.6-17.5,16.1c0,0.2,0,0.5,0,0.7l0,0.2c0,0.1,0,0.2,0,0.3c0.1,5.3,3.2,10.2,5,12.8c-6.6,5.3-10.7,10.4-10.7,19.1
	c0,5,2,9.9,5.5,13.4c3.9,4,9.4,6.1,15.9,6.1c8,0,14.8-3.2,19.1-9.1l7.1,6.9l15.2,0.1l-42-40.9C287.7,217.4,287.1,216.8,286.6,216.2
	L286.6,216.2z M285.4,230.1l14.3,14c-1.8,3.3-5.3,7.2-11.6,7.2c-1.4,0-2.7-0.3-4-0.8c-3.4-1.6-5.6-5.1-5.6-8.8
	c0-4.5,1.9-7.8,6.2-11.1L285.4,230.1L285.4,230.1z M215.7,204.2c-12.9,0-24.9,11.1-24.9,27.9c0,18,12.3,28.4,26.2,28.4
	c12.3,0,20.4-7.5,23.1-16.8l-10.3-3.4c-1.7,5.2-5.5,9.3-12.8,9.3c-7.6,0-13.7-5.8-14-13.8h37.4c0.1-0.2,0.3-2,0.3-4
	C240.7,215,231.5,204.2,215.7,204.2L215.7,204.2z M203.3,226.5c0.4-5.7,4.8-11.8,12.5-11.8c8.4,0,12.4,5.6,12.6,11.8H203.3z
	 M163,249c-7.7,0-14.3-6-14.3-16.7c0-10.7,6.6-16.5,14.1-16.5c7.8,0,11.3,5.2,12.4,9.9l10.9-4.1c-2.1-8.5-9.7-17.4-23.5-17.4
	c-14.7,0-26.2,11.8-26.2,28.1c0,16.1,11.5,28.2,26.5,28.2c13.5,0,21.1-9,23.6-17.3l-10.7-4C174.7,243.2,171,249,163,249L163,249z
	 M515.6,231.8c0-16.8-9.3-27.6-25.1-27.6c-13,0-25,11.1-25,27.9c0,18,12.3,28.5,26.2,28.5c12.3,0,20.4-7.5,23.2-16.8l-10.3-3.4
	c-1.7,5.2-5.5,9.3-12.8,9.3c-7.6,0-13.7-5.8-14-13.8h37.5C515.4,235.6,515.6,233.9,515.6,231.8L515.6,231.8z M478.1,226.6
	c0.4-5.7,4.8-11.8,12.5-11.8c8.4,0,12.4,5.6,12.6,11.8H478.1z M450.1,241.7v-24.7h10.6v-11.2h-10.6v-16.3H439v8
	c0,4.7-2.4,8.3-7.9,8.3h-2.6v11.2h9.5v26.7c0,9.9,5.9,15.8,15.4,15.8c4.4,0,6.7-0.9,7.5-1.2V248c-0.5,0.1-2.5,0.4-4.2,0.4
	C452.1,248.4,450.1,246.4,450.1,241.7L450.1,241.7z M423.2,224.1c0-10.6-6-19.8-21.8-19.8c-12.6,0-20.6,8.2-21.6,17.3l11.2,2.6
	c0.5-5.3,4.1-9.6,10.5-9.6c6.7,0,9.7,3.6,9.7,8.1c0,1.9-0.8,3.4-3.8,3.8l-13.2,2.1c-8.7,1.3-15.5,6.6-15.5,16c0,8.4,6.6,16,17.4,16
	c8.3,0,13.4-4.4,15.8-8.4c0,4.3,0.4,6.4,0.5,6.8h11.4c-0.1-0.5-0.6-3.7-0.6-8.5V224.1L423.2,224.1z M411.2,237
	c0,10.4-5.9,13.7-12.7,13.7c-4.8,0-7.5-3.3-7.5-6.9c0-4.4,3.1-6.5,6.8-7.2l13.4-2.1L411.2,237L411.2,237z M360.8,241.7v-24.7h10.6
	v-11.2h-10.6v-16.3h-11.1v8c0,4.7-2.4,8.3-7.9,8.3h-2.6v11.2h9.5v26.7c0,9.9,5.9,15.8,15.4,15.8c4.4,0,6.7-0.9,7.5-1.2V248
	c-0.5,0.1-2.5,0.4-4.2,0.4C362.8,248.4,360.8,246.4,360.8,241.7L360.8,241.7z"/>
</svg>
